<?xml version="1.0" encoding="UTF-8" standalone="no"?>
<svg
   xmlns:dc="http://purl.org/dc/elements/1.1/"
   xmlns:cc="http://creativecommons.org/ns#"
   xmlns:rdf="http://www.w3.org/1999/02/22-rdf-syntax-ns#"
   xmlns:svg="http://www.w3.org/2000/svg"
   xmlns="http://www.w3.org/2000/svg"
   xmlns:sodipodi="http://sodipodi.sourceforge.net/DTD/sodipodi-0.dtd"
   xmlns:inkscape="http://www.inkscape.org/namespaces/inkscape"
   version="1.1"
   viewBox="0 0 1030.2313 525.02097"
   stroke-miterlimit="10"
   id="svg251"
   sodipodi:docname="simple-roofline.svg"
   inkscape:version="0.92.2 (5c3e80d, 2017-08-06)"
   width="1030.2313"
   height="525.021"
   style="fill:none;stroke:none;stroke-linecap:square;stroke-miterlimit:10">
  <metadata
     id="metadata257">
    <rdf:RDF>
      <cc:Work
         rdf:about="">
        <dc:format>image/svg+xml</dc:format>
        <dc:type
           rdf:resource="http://purl.org/dc/dcmitype/StillImage" />
        <dc:title />
      </cc:Work>
    </rdf:RDF>
  </metadata>
  <defs
     id="defs255" />
  <sodipodi:namedview
     pagecolor="#ffffff"
     bordercolor="#666666"
     borderopacity="1"
     objecttolerance="10"
     gridtolerance="10"
     guidetolerance="10"
     inkscape:pageopacity="0"
     inkscape:pageshadow="2"
     inkscape:window-width="1920"
     inkscape:window-height="1125"
     id="namedview253"
     showgrid="false"
     inkscape:zoom="1.0963163"
     inkscape:cx="465.40309"
     inkscape:cy="273.85972"
     inkscape:window-x="1920"
     inkscape:window-y="25"
     inkscape:window-maximized="1"
     inkscape:current-layer="svg251" />
  <clipPath
     id="p.0">
    <path
       d="M 0,0 H 1408.6456 V 613.50397 H 0 Z"
       id="path2"
       inkscape:connector-curvature="0"
       style="clip-rule:nonzero" />
  </clipPath>
  <path
     style="fill:#ceffe8;fill-opacity:1;stroke:none;stroke-width:1px;stroke-linecap:butt;stroke-linejoin:miter;stroke-opacity:1"
     d="m 511.99464,148.16008 v 330.4567 l 493.23176,-1.2585 v -331.1088 z"
     id="path1224"
     inkscape:connector-curvature="0" />
  <path
     style="fill:#dfedff;fill-opacity:1;stroke:none;stroke-width:1px;stroke-linecap:butt;stroke-linejoin:miter;stroke-opacity:1"
     d="m 511.99464,148.16008 v 330.4567 l -373.5403,-0.3989 371.9423,-330.6536"
     id="path1216"
     inkscape:connector-curvature="0" />
  <path
     style="fill-rule:nonzero;stroke:#b7b7b7;stroke-width:2;stroke-linecap:butt;stroke-linejoin:round;stroke-dasharray:8, 6"
     inkscape:connector-curvature="0"
     id="path9"
     d="m 511.99464,148.16008 v 330.4567" />
  <path
     style="fill:#000000;fill-opacity:0;fill-rule:nonzero"
     inkscape:connector-curvature="0"
     id="path11"
     d="m 604.48584,148.16008 v 330.4567" />
  <path
     style="fill-rule:nonzero;stroke:#b7b7b7;stroke-width:2;stroke-linecap:butt;stroke-linejoin:round;stroke-dasharray:8, 6"
     inkscape:connector-curvature="0"
     id="path13"
     d="m 736.74694,148.16008 v 330.4567" />
  <path
     style="fill:#000000;fill-opacity:0;fill-rule:nonzero"
     inkscape:connector-curvature="0"
     id="path15"
     d="m 451.19714,200.00258 0.1889,279.0237" />
  <path
     style="fill-rule:nonzero;stroke:#b7b7b7;stroke-width:1.55904901;stroke-linecap:butt;stroke-linejoin:round;stroke-dasharray:6.23619604, 4.67714703"
     inkscape:connector-curvature="0"
     id="path17"
     d="m 325.23334,312.38698 0.19,168.6455" />
  <path
     style="fill:#000000;fill-opacity:0;fill-rule:nonzero"
     inkscape:connector-curvature="0"
     id="path19"
     d="M 68.010739,480.50398 66.467439,0" />
  <path
     style="fill-rule:evenodd;stroke:#000000;stroke-width:3;stroke-linecap:butt;stroke-linejoin:round"
     inkscape:connector-curvature="0"
     id="path21"
     d="M 68.010739,480.50398 66.500439,10.28122" />
  <path
     style="fill-rule:evenodd;stroke:#000000;stroke-width:2.31149745;stroke-linecap:butt;stroke-linejoin:round"
     inkscape:connector-curvature="0"
     id="path27"
     d="m 69.204939,478.83188 946.138361,-0.5294" />
  <path
     style="fill:#000000;fill-rule:evenodd;stroke:#000000;stroke-width:3;stroke-linecap:butt"
     inkscape:connector-curvature="0"
     id="path29"
     d="m 1016.7189,477.67438 -3.3718,3.3756 9.2673,-3.3789 -9.2711,-3.3686 z" />
  <path
     style="fill:#000000;fill-opacity:0;fill-rule:nonzero"
     inkscape:connector-curvature="0"
     id="path51"
     d="m 67.404439,60.895009 h -9.0078" />
  <path
     style="fill:#000000;fill-opacity:0;fill-rule:nonzero"
     inkscape:connector-curvature="0"
     id="path55"
     d="m 138.45434,478.21788 0.2834,8.8189" />
  <path
     style="fill-rule:nonzero;stroke:#000000;stroke-width:3;stroke-linecap:butt;stroke-linejoin:round"
     inkscape:connector-curvature="0"
     id="path57"
     d="m 138.45434,478.21788 0.2834,8.8189" />
  <path
     style="fill:#000000;fill-opacity:0;fill-rule:nonzero"
     inkscape:connector-curvature="0"
     id="path59"
     d="m 209.18134,478.21788 0.2835,8.8189" />
  <path
     style="fill-rule:nonzero;stroke:#000000;stroke-width:3;stroke-linecap:butt;stroke-linejoin:round"
     inkscape:connector-curvature="0"
     id="path61"
     d="m 209.18134,478.21788 0.2835,8.8189" />
  <path
     style="fill:#000000;fill-opacity:0;fill-rule:nonzero"
     inkscape:connector-curvature="0"
     id="path63"
     d="m 279.90834,478.21788 0.2835,8.8189" />
  <path
     style="fill-rule:nonzero;stroke:#000000;stroke-width:3;stroke-linecap:butt;stroke-linejoin:round"
     inkscape:connector-curvature="0"
     id="path65"
     d="m 279.90834,478.21788 0.2835,8.8189" />
  <path
     style="fill:#000000;fill-opacity:0;fill-rule:nonzero"
     inkscape:connector-curvature="0"
     id="path67"
     d="m 350.63544,478.21788 0.2834,8.8189" />
  <path
     style="fill-rule:nonzero;stroke:#000000;stroke-width:3;stroke-linecap:butt;stroke-linejoin:round"
     inkscape:connector-curvature="0"
     id="path69"
     d="m 350.63544,478.21788 0.2834,8.8189" />
  <path
     style="fill:#000000;fill-opacity:0;fill-rule:nonzero"
     inkscape:connector-curvature="0"
     id="path71"
     d="m 421.36244,478.21788 0.2835,8.8189" />
  <path
     style="fill-rule:nonzero;stroke:#000000;stroke-width:3;stroke-linecap:butt;stroke-linejoin:round"
     inkscape:connector-curvature="0"
     id="path73"
     d="m 421.36244,478.21788 0.2835,8.8189" />
  <path
     style="fill:#000000;fill-opacity:0;fill-rule:nonzero"
     inkscape:connector-curvature="0"
     id="path75"
     d="m 492.08944,478.21788 0.2835,8.8189" />
  <path
     style="fill-rule:nonzero;stroke:#000000;stroke-width:3;stroke-linecap:butt;stroke-linejoin:round"
     inkscape:connector-curvature="0"
     id="path77"
     d="m 492.08944,478.21788 0.2835,8.8189" />
  <path
     style="fill:#000000;fill-opacity:0;fill-rule:nonzero"
     inkscape:connector-curvature="0"
     id="path79"
     d="m 562.81654,478.21788 0.2834,8.8189" />
  <path
     style="fill-rule:nonzero;stroke:#000000;stroke-width:3;stroke-linecap:butt;stroke-linejoin:round"
     inkscape:connector-curvature="0"
     id="path81"
     d="m 562.81654,478.21788 0.2834,8.8189" />
  <path
     style="fill:#000000;fill-opacity:0;fill-rule:nonzero"
     inkscape:connector-curvature="0"
     id="path83"
     d="m 633.54354,478.21788 0.2835,8.8189" />
  <path
     style="fill-rule:nonzero;stroke:#000000;stroke-width:3;stroke-linecap:butt;stroke-linejoin:round"
     inkscape:connector-curvature="0"
     id="path85"
     d="m 633.54354,478.21788 0.2835,8.8189" />
  <path
     style="fill:#000000;fill-rule:nonzero"
     inkscape:connector-curvature="0"
     id="path141"
     d="m 126.25754,503.50368 q 1.0782,-0.4219 2.1094,-1.0625 1.0313,-0.6563 1.875,-1.6563 h 1.2656 v 13.1719 h -1.7656 v -10.7188 q -0.2344,0.2188 -0.5781,0.4532 -0.3281,0.2187 -0.7188,0.4218 -0.375,0.2032 -0.8125,0.4063 -0.4218,0.1875 -0.8281,0.3125 z m 10.1003,13.9687 h -1.7969 l 6.4375,-18.3906 h 1.7656 z m 6.5859,-8.0781 q 0.3593,-0.8281 0.9843,-1.9375 0.625,-1.125 1.4063,-2.2969 0.7969,-1.1719 1.6875,-2.3125 0.9062,-1.1406 1.8281,-2.0625 h 1.6875 v 8.3594 h 1.5625 v 1.4531 h -1.5625 v 3.3594 h -1.7031 v -3.3594 h -5.8906 z m 5.8906,-6.5156 q -0.5781,0.6093 -1.1563,1.3593 -0.5781,0.75 -1.1406,1.5782 -0.5469,0.8125 -1.0312,1.6718 -0.4844,0.8438 -0.8594,1.6563 h 4.1875 z" />
  <path
     style="fill:#000000;fill-opacity:0;fill-rule:nonzero"
     inkscape:connector-curvature="0"
     id="path143"
     d="m 183.96874,487.03678 h 50.7087 v 37.9842 h -50.7087 z" />
  <path
     style="fill:#000000;fill-rule:nonzero"
     inkscape:connector-curvature="0"
     id="path145"
     d="m 196.98454,503.50368 q 1.0782,-0.4219 2.1094,-1.0625 1.0313,-0.6563 1.875,-1.6563 h 1.2656 v 13.1719 h -1.7656 v -10.7188 q -0.2344,0.2188 -0.5781,0.4532 -0.3281,0.2187 -0.7188,0.4218 -0.375,0.2032 -0.8125,0.4063 -0.4218,0.1875 -0.8281,0.3125 z m 10.1003,13.9687 h -1.7969 l 6.4375,-18.3906 h 1.7656 z m 14.6952,-13.3125 q 0,0.6719 -0.2812,1.3125 -0.2656,0.6406 -0.7344,1.2656 -0.4531,0.6094 -1.0312,1.2032 -0.5625,0.5937 -1.125,1.1718 -0.3282,0.3282 -0.7657,0.7657 -0.4218,0.4375 -0.7968,0.9062 -0.375,0.4688 -0.6407,0.9063 -0.25,0.4375 -0.25,0.7656 h 6.0625 v 1.5 h -7.9843 q -0.016,-0.1094 -0.016,-0.2188 0,-0.125 0,-0.2187 0,-0.8906 0.2969,-1.6563 0.2968,-0.7812 0.7656,-1.4531 0.4687,-0.6875 1.0625,-1.2969 0.5937,-0.6093 1.1562,-1.1718 0.4844,-0.4688 0.9063,-0.9063 0.4219,-0.4531 0.75,-0.8906 0.3437,-0.4531 0.5312,-0.9219 0.2032,-0.4844 0.2032,-1.0156 0,-0.5625 -0.1875,-0.9531 -0.1719,-0.4063 -0.4844,-0.6719 -0.2969,-0.2656 -0.7031,-0.3906 -0.4063,-0.125 -0.8594,-0.125 -0.5469,0 -1.0156,0.1562 -0.4532,0.1406 -0.8125,0.3438 -0.3594,0.2031 -0.6094,0.4218 -0.2344,0.2188 -0.375,0.3282 l -0.875,-1.25 q 0.1719,-0.1875 0.5156,-0.4688 0.3438,-0.2812 0.8125,-0.5156 0.4844,-0.25 1.0625,-0.4219 0.5938,-0.1719 1.2813,-0.1719 2.0625,0 3.0937,0.9688 1.0469,0.9531 1.0469,2.7031 z" />
  <path
     style="fill:#000000;fill-opacity:0;fill-rule:nonzero"
     inkscape:connector-curvature="0"
     id="path147"
     d="m 254.69584,487.03678 h 50.7086 v 37.9842 h -50.7086 z" />
  <path
     style="fill:#000000;fill-rule:nonzero"
     inkscape:connector-curvature="0"
     id="path149"
     d="m 276.55464,503.50368 q 1.0782,-0.4219 2.1094,-1.0625 1.0313,-0.6563 1.875,-1.6563 h 1.2656 v 13.1719 h -1.7656 v -10.7188 q -0.2344,0.2188 -0.5781,0.4532 -0.3281,0.2187 -0.7188,0.4218 -0.375,0.2032 -0.8125,0.4063 -0.4218,0.1875 -0.8281,0.3125 z" />
  <path
     style="fill:#000000;fill-opacity:0;fill-rule:nonzero"
     inkscape:connector-curvature="0"
     id="path151"
     d="m 325.42284,487.03678 h 50.7087 v 37.9842 h -50.7087 z" />
  <path
     style="fill:#000000;fill-rule:nonzero"
     inkscape:connector-curvature="0"
     id="path153"
     d="m 354.39114,504.15988 q 0,0.6719 -0.2813,1.3125 -0.2656,0.6406 -0.7343,1.2656 -0.4532,0.6094 -1.0313,1.2031 -0.5625,0.5938 -1.125,1.1719 -0.3281,0.3281 -0.7656,0.7656 -0.4219,0.4375 -0.7969,0.9063 -0.375,0.4687 -0.6406,0.9062 -0.25,0.4375 -0.25,0.7657 h 6.0625 v 1.5 h -7.9844 q -0.016,-0.1094 -0.016,-0.2188 0,-0.125 0,-0.2187 0,-0.8907 0.2969,-1.6563 0.2969,-0.7812 0.7656,-1.4531 0.4688,-0.6875 1.0625,-1.2969 0.5938,-0.6094 1.1563,-1.1719 0.4843,-0.4687 0.9062,-0.9062 0.4219,-0.4531 0.75,-0.8906 0.3438,-0.4532 0.5313,-0.9219 0.2031,-0.4844 0.2031,-1.0156 0,-0.5625 -0.1875,-0.9532 -0.1719,-0.4062 -0.4844,-0.6718 -0.2969,-0.2657 -0.7031,-0.3907 -0.4063,-0.125 -0.8594,-0.125 -0.5469,0 -1.0156,0.1563 -0.4531,0.1406 -0.8125,0.3437 -0.3594,0.2032 -0.6094,0.4219 -0.2344,0.2188 -0.375,0.3281 l -0.875,-1.25 q 0.1719,-0.1875 0.5156,-0.4687 0.3438,-0.2813 0.8125,-0.5156 0.4844,-0.25 1.0625,-0.4219 0.5938,-0.1719 1.2813,-0.1719 2.0625,0 3.0937,0.9688 1.0469,0.9531 1.0469,2.7031 z" />
  <path
     style="fill:#000000;fill-opacity:0;fill-rule:nonzero"
     inkscape:connector-curvature="0"
     id="path155"
     d="m 396.14984,487.03678 h 50.7087 v 37.9842 h -50.7087 z" />
  <path
     style="fill:#000000;fill-rule:nonzero"
     inkscape:connector-curvature="0"
     id="path157"
     d="m 417.00874,509.39428 q 0.3594,-0.8282 0.9844,-1.9375 0.625,-1.125 1.4062,-2.2969 0.7969,-1.1719 1.6875,-2.3125 0.9063,-1.1406 1.8282,-2.0625 h 1.6875 v 8.3594 h 1.5625 v 1.4531 h -1.5625 v 3.3594 h -1.7032 v -3.3594 h -5.8906 z m 5.8906,-6.5157 q -0.5781,0.6094 -1.1562,1.3594 -0.5781,0.75 -1.1406,1.5781 -0.5469,0.8125 -1.0313,1.6719 -0.4844,0.8438 -0.8594,1.6563 h 4.1875 z" />
  <path
     style="fill:#000000;fill-opacity:0;fill-rule:nonzero"
     inkscape:connector-curvature="0"
     id="path159"
     d="m 466.87694,487.03678 h 50.7086 v 37.9842 h -50.7086 z" />
  <path
     style="fill:#000000;fill-rule:nonzero"
     inkscape:connector-curvature="0"
     id="path161"
     d="m 496.64204,510.53488 q 0,0.7969 -0.2813,1.4844 -0.2656,0.6718 -0.8125,1.1718 -0.5468,0.5 -1.3593,0.7657 -0.8125,0.2812 -1.875,0.2812 -1.2344,0 -2.0625,-0.3437 -0.8282,-0.3594 -1.3282,-0.8907 -0.4843,-0.5312 -0.7031,-1.1562 -0.2031,-0.6406 -0.2031,-1.2188 0,-0.5468 0.1719,-1.0468 0.1875,-0.5157 0.4843,-0.9375 0.2969,-0.4375 0.6875,-0.7813 0.3907,-0.3594 0.8282,-0.625 -1.875,-1.0781 -1.875,-3.1406 0,-0.7188 0.2812,-1.375 0.2969,-0.6563 0.8125,-1.1406 0.5313,-0.5 1.2656,-0.7969 0.75,-0.2969 1.6563,-0.2969 1.0625,0 1.8125,0.3281 0.7656,0.3125 1.25,0.8282 0.4844,0.5 0.7031,1.1093 0.2188,0.5938 0.2188,1.1719 0,0.5469 -0.1563,1.0313 -0.1562,0.4843 -0.4375,0.9062 -0.2812,0.4219 -0.6406,0.75 -0.3438,0.3125 -0.7188,0.5625 2.25,1.0625 2.2813,3.3594 z m -6.8438,0.1094 q 0,0.3437 0.125,0.7187 0.125,0.375 0.4219,0.6875 0.3125,0.3125 0.7813,0.5313 0.4843,0.2031 1.2031,0.2031 0.6406,0 1.125,-0.1875 0.4844,-0.2031 0.7812,-0.4844 0.3125,-0.2969 0.4688,-0.6719 0.1562,-0.3906 0.1562,-0.7968 0,-0.5938 -0.2343,-1.0469 -0.2344,-0.4688 -0.6563,-0.8125 -0.4219,-0.3438 -1.0312,-0.5781 -0.5938,-0.2344 -1.3594,-0.4063 -0.8438,0.4688 -1.3125,1.1719 -0.4688,0.7031 -0.4688,1.6719 z m 4.75,-6.7344 q 0,-0.2969 -0.125,-0.625 -0.125,-0.3438 -0.3906,-0.6406 -0.2656,-0.2969 -0.6875,-0.5 -0.4062,-0.2032 -1.0156,-0.2032 -0.6094,0 -1.0469,0.2032 -0.4219,0.1875 -0.6875,0.4843 -0.2656,0.2969 -0.3906,0.6407 -0.125,0.3437 -0.125,0.6875 0,0.4218 0.1562,0.8437 0.1563,0.4219 0.4688,0.7813 0.3281,0.3593 0.8437,0.6406 0.5313,0.2812 1.25,0.4531 0.7969,-0.4687 1.2657,-1.1094 0.4843,-0.6406 0.4843,-1.6562 z" />
  <path
     style="fill:#000000;fill-opacity:0;fill-rule:nonzero"
     inkscape:connector-curvature="0"
     id="path163"
     d="m 537.60394,487.03678 h 50.7087 v 37.9842 h -50.7087 z" />
  <path
     style="fill:#000000;fill-rule:nonzero"
     inkscape:connector-curvature="0"
     id="path165"
     d="m 554.20174,503.50368 q 1.0782,-0.4219 2.1094,-1.0625 1.0313,-0.6563 1.875,-1.6563 h 1.2656 v 13.1719 h -1.7656 v -10.7188 q -0.2344,0.2188 -0.5781,0.4532 -0.3281,0.2187 -0.7188,0.4218 -0.375,0.2032 -0.8125,0.4063 -0.4218,0.1875 -0.8281,0.3125 z m 9.9596,5.1718 q 0,-1.9218 0.5313,-3.3906 0.5312,-1.4687 1.5,-2.4687 0.9844,-1.0157 2.375,-1.5313 1.4062,-0.5312 3.1562,-0.5469 l 0.125,1.4844 q -1.125,0.016 -2.0468,0.25 -0.9219,0.2188 -1.6407,0.7188 -0.7187,0.4843 -1.2187,1.2812 -0.4844,0.7813 -0.7344,1.9375 0.5,-0.2187 1.1094,-0.375 0.625,-0.1562 1.2812,-0.1562 1.125,0 1.9063,0.3437 0.7812,0.3438 1.2656,0.9063 0.5,0.5625 0.7188,1.2968 0.2187,0.7188 0.2187,1.5157 0,0.7343 -0.25,1.5 -0.25,0.75 -0.75,1.375 -0.5,0.625 -1.2812,1.0312 -0.7813,0.3906 -1.8438,0.3906 -2.1719,0 -3.2969,-1.4687 -1.125,-1.4844 -1.125,-4.0938 z m 4.25,-1.3437 q -0.6718,0 -1.25,0.125 -0.5625,0.1094 -1.125,0.3594 -0.016,0.2187 -0.031,0.4375 0,0.2187 0,0.4218 0,0.8282 0.1094,1.5782 0.1094,0.7343 0.4063,1.2968 0.2968,0.5625 0.7812,0.9063 0.5,0.3281 1.2656,0.3281 0.625,0 1.0625,-0.2656 0.4375,-0.2656 0.7188,-0.6875 0.2812,-0.4219 0.4062,-0.9063 0.125,-0.4843 0.125,-0.9375 0,-1.2968 -0.625,-1.9687 -0.6093,-0.6875 -1.8437,-0.6875 z" />
  <path
     style="fill:#000000;fill-opacity:0;fill-rule:nonzero"
     inkscape:connector-curvature="0"
     id="path167"
     d="m 608.33104,487.03678 h 50.7086 v 37.9842 h -50.7086 z" />
  <path
     style="fill:#000000;fill-rule:nonzero"
     inkscape:connector-curvature="0"
     id="path169"
     d="m 627.46004,512.65988 q 1.6875,0 2.4219,-0.6563 0.7343,-0.6718 0.7343,-1.7968 0,-0.7188 -0.3125,-1.2032 -0.2968,-0.5 -0.7968,-0.7968 -0.4844,-0.2969 -1.1407,-0.4063 -0.6562,-0.125 -1.3437,-0.125 h -0.4531 v -1.4531 h 0.625 q 0.4687,0 0.9687,-0.094 0.5156,-0.094 0.9219,-0.3438 0.4219,-0.25 0.6875,-0.6718 0.2656,-0.4219 0.2656,-1.0782 0,-0.5312 -0.1875,-0.9062 -0.1875,-0.375 -0.5,-0.625 -0.3125,-0.25 -0.7344,-0.3438 -0.4062,-0.1093 -0.8593,-0.1093 -0.9063,0 -1.5469,0.2656 -0.6406,0.2656 -1.0781,0.5469 l -0.6719,-1.3438 q 0.2187,-0.1562 0.5625,-0.3281 0.3594,-0.1875 0.7969,-0.3438 0.4375,-0.1562 0.9375,-0.25 0.5156,-0.1093 1.0625,-0.1093 1.0468,0 1.7968,0.2656 0.7657,0.25 1.25,0.7187 0.5,0.4532 0.75,1.0938 0.25,0.6406 0.25,1.375 0,1.0312 -0.5937,1.7656 -0.5781,0.7188 -1.4219,1.1094 0.5156,0.1562 0.9844,0.4375 0.4844,0.2812 0.8281,0.7187 0.3594,0.4375 0.5781,1.0157 0.2188,0.5625 0.2188,1.2656 0,0.8594 -0.2969,1.5937 -0.2969,0.7188 -0.9219,1.25 -0.6093,0.5313 -1.5468,0.8438 -0.9219,0.2969 -2.2032,0.2969 -0.4843,0 -1.0156,-0.078 -0.5156,-0.062 -0.9844,-0.1875 -0.4531,-0.1094 -0.7968,-0.2188 -0.3282,-0.125 -0.4844,-0.2031 l 0.3437,-1.5313 q 0.3125,0.1563 1.0625,0.4063 0.7657,0.2344 1.8438,0.2344 z m 15.1003,-8.5 q 0,0.6719 -0.2813,1.3125 -0.2656,0.6406 -0.7344,1.2656 -0.4531,0.6094 -1.0312,1.2031 -0.5625,0.5938 -1.125,1.1719 -0.3281,0.3281 -0.7656,0.7656 -0.4219,0.4375 -0.7969,0.9063 -0.375,0.4687 -0.6406,0.9062 -0.25,0.4375 -0.25,0.7657 h 6.0625 v 1.5 h -7.9844 q -0.016,-0.1094 -0.016,-0.2188 0,-0.125 0,-0.2187 0,-0.8907 0.2969,-1.6563 0.2968,-0.7812 0.7656,-1.4531 0.4687,-0.6875 1.0625,-1.2969 0.5937,-0.6094 1.1562,-1.1719 0.4844,-0.4687 0.9063,-0.9062 0.4219,-0.4531 0.75,-0.8906 0.3437,-0.4532 0.5312,-0.9219 0.2032,-0.4844 0.2032,-1.0156 0,-0.5625 -0.1875,-0.9532 -0.1719,-0.4062 -0.4844,-0.6718 -0.2969,-0.2657 -0.7031,-0.3907 -0.4063,-0.125 -0.8594,-0.125 -0.5469,0 -1.0156,0.1563 -0.4532,0.1406 -0.8125,0.3437 -0.3594,0.2032 -0.6094,0.4219 -0.2344,0.2188 -0.375,0.3281 l -0.875,-1.25 q 0.1719,-0.1875 0.5156,-0.4687 0.3438,-0.2813 0.8125,-0.5156 0.4844,-0.25 1.0625,-0.4219 0.5938,-0.1719 1.2813,-0.1719 2.0625,0 3.0937,0.9688 1.0469,0.9531 1.0469,2.7031 z" />
  <path
     style="fill:#000000;fill-opacity:0;fill-rule:nonzero"
     inkscape:connector-curvature="0"
     id="path187"
     d="m 138.45434,478.21788 372.2519,-330.7717" />
  <path
     style="fill-rule:nonzero;stroke:#000000;stroke-width:4;stroke-linecap:butt;stroke-linejoin:round"
     inkscape:connector-curvature="0"
     id="path189"
     d="m 138.45434,478.21788 372.2519,-330.7717" />
  <path
     style="fill-rule:nonzero;stroke:#000000;stroke-width:3.44526434;stroke-linecap:butt;stroke-linejoin:round"
     inkscape:connector-curvature="0"
     id="path193"
     d="M 510.39664,147.56428 H 1029.4453" />
  <path
     style="fill:#000000;fill-opacity:0;fill-rule:nonzero"
     inkscape:connector-curvature="0"
     id="path195"
     d="m 65.535739,147.62728 445.543201,-0.063" />
  <path
     style="fill-rule:nonzero;stroke:#000000;stroke-width:2;stroke-linecap:butt;stroke-linejoin:round;stroke-dasharray:8, 6"
     inkscape:connector-curvature="0"
     id="path197"
     d="m 65.535739,147.62728 445.543201,-0.063" />
  <path
     style="fill:#000000;fill-opacity:0;fill-rule:nonzero"
     inkscape:connector-curvature="0"
     id="path199"
     d="M 510.39664,147.56428 620.50684,50.304459" />
  <path
     style="fill-rule:nonzero;stroke:#000000;stroke-width:2;stroke-linecap:butt;stroke-linejoin:round;stroke-dasharray:8, 6"
     inkscape:connector-curvature="0"
     id="path201"
     d="M 510.39664,147.56428 620.50684,50.304459" />
  <path
     style="fill:#000000;fill-opacity:0;fill-rule:nonzero"
     inkscape:connector-curvature="0"
     id="path203"
     d="m 410.24174,370.18108 h 93.0394 v 37.9843 h -93.0394 z" />
  <path
     style="fill:#000000;fill-opacity:0;fill-rule:nonzero"
     inkscape:connector-curvature="0"
     id="path209"
     d="m 563.09994,272.87668 h 82.5827 v 37.9842 h -82.5827 z" />
  <path
     style="fill:#000000;fill-rule:nonzero"
     inkscape:connector-curvature="0"
     id="path221"
     d="m 320.89524,327.34518 v 0 c 0,-2.4353 2.0165,-4.4095 4.504,-4.4095 v 0 c 1.1945,0 2.3401,0.4646 3.1847,1.2915 0.8447,0.827 1.3192,1.9485 1.3192,3.118 v 0 c 0,2.4352 -2.0165,4.4094 -4.5039,4.4094 v 0 c -2.4875,0 -4.504,-1.9742 -4.504,-4.4094 z" />
  <path
     style="fill-rule:nonzero;stroke:#000000;stroke-width:1;stroke-linecap:butt;stroke-linejoin:round"
     inkscape:connector-curvature="0"
     id="path223"
     d="m 320.89524,327.34518 v 0 c 0,-2.4353 2.0165,-4.4095 4.504,-4.4095 v 0 c 1.1945,0 2.3401,0.4646 3.1847,1.2915 0.8447,0.827 1.3192,1.9485 1.3192,3.118 v 0 c 0,2.4352 -2.0165,4.4094 -4.5039,4.4094 v 0 c -2.4875,0 -4.504,-1.9742 -4.504,-4.4094 z" />
  <path
     style="fill:#000000;fill-rule:nonzero"
     inkscape:connector-curvature="0"
     id="path225"
     d="m 732.14844,277.28608 v 0 c 0,-2.4353 2.0165,-4.4094 4.504,-4.4094 v 0 c 1.1945,0 2.3401,0.4645 3.1848,1.2915 0.8446,0.8269 1.3191,1.9485 1.3191,3.1179 v 0 c 0,2.4353 -2.0165,4.4095 -4.5039,4.4095 v 0 c -2.4875,0 -4.504,-1.9742 -4.504,-4.4095 z" />
  <path
     style="fill-rule:nonzero;stroke:#000000;stroke-width:1;stroke-linecap:butt;stroke-linejoin:round"
     inkscape:connector-curvature="0"
     id="path227"
     d="m 732.14844,277.28608 v 0 c 0,-2.4353 2.0165,-4.4094 4.504,-4.4094 v 0 c 1.1945,0 2.3401,0.4645 3.1848,1.2915 0.8446,0.8269 1.3191,1.9485 1.3191,3.1179 v 0 c 0,2.4353 -2.0165,4.4095 -4.5039,4.4095 v 0 c -2.4875,0 -4.504,-1.9742 -4.504,-4.4095 z" />
  <text
     xml:space="preserve"
     style="font-style:normal;font-variant:normal;font-weight:normal;font-stretch:normal;font-size:24px;line-height:1.25;font-family:'Noto Sans';-inkscape-font-specification:'Noto Sans, Normal';font-variant-ligatures:normal;font-variant-caps:normal;font-variant-numeric:normal;font-feature-settings:normal;text-align:start;letter-spacing:0px;word-spacing:0px;writing-mode:lr-tb;text-anchor:start;fill:#000000;fill-opacity:1;stroke:none"
     x="261.82797"
     y="94.257164"
     id="text1188"><tspan
       sodipodi:role="line"
       id="tspan1186"
       x="261.82797"
       y="94.257164">Bound based on bandwidth</tspan></text>
  <text
     id="text1192"
     y="131.65518"
     x="633.07111"
     style="font-style:normal;font-variant:normal;font-weight:normal;font-stretch:normal;font-size:24px;line-height:1.25;font-family:'Noto Sans';-inkscape-font-specification:'Noto Sans, Normal';font-variant-ligatures:normal;font-variant-caps:normal;font-variant-numeric:normal;font-feature-settings:normal;text-align:start;letter-spacing:0px;word-spacing:0px;writing-mode:lr-tb;text-anchor:start;fill:#000000;fill-opacity:1;stroke:none"
     xml:space="preserve"><tspan
       sodipodi:role="line"
       id="tspan1194"
       x="633.07111"
       y="131.65518">Bound based on peak performance</tspan></text>
  <text
     xml:space="preserve"
     style="font-style:normal;font-variant:normal;font-weight:normal;font-stretch:normal;font-size:26.66666603px;line-height:1.25;font-family:'Noto Sans';-inkscape-font-specification:'Noto Sans, Normal';font-variant-ligatures:normal;font-variant-caps:normal;font-variant-numeric:normal;font-feature-settings:normal;text-align:start;letter-spacing:0px;word-spacing:0px;writing-mode:lr-tb;text-anchor:start;fill:#000000;fill-opacity:1;stroke:none"
     x="-450.52203"
     y="20.403645"
     id="text1198"
     transform="rotate(-90)"><tspan
       sodipodi:role="line"
       id="tspan1196"
       x="-450.52203"
       y="20.403645">Performance [GFLOPS/s]</tspan></text>
  <text
     id="text1202"
     y="518.40485"
     x="680.50262"
     style="font-style:normal;font-variant:normal;font-weight:normal;font-stretch:normal;font-size:21.33333397px;line-height:1.25;font-family:'Noto Sans';-inkscape-font-specification:'Noto Sans, Normal';font-variant-ligatures:normal;font-variant-caps:normal;font-variant-numeric:normal;font-feature-settings:normal;text-align:start;letter-spacing:0px;word-spacing:0px;writing-mode:lr-tb;text-anchor:start;fill:#000000;fill-opacity:1;stroke:none"
     xml:space="preserve"><tspan
       sodipodi:role="line"
       id="tspan1204"
       x="680.50262"
       y="518.40485">Arithmetic intensity [FLOPS/byte]</tspan></text>
  <text
     xml:space="preserve"
     style="font-style:normal;font-variant:normal;font-weight:normal;font-stretch:normal;font-size:26.66666603px;line-height:1.25;font-family:'Noto Sans';-inkscape-font-specification:'Noto Sans, Normal';font-variant-ligatures:normal;font-variant-caps:normal;font-variant-numeric:normal;font-feature-settings:normal;text-align:start;letter-spacing:0px;word-spacing:0px;writing-mode:lr-tb;text-anchor:start;fill:#000000;fill-opacity:1;stroke:none"
     x="343.92096"
     y="331.41498"
     id="text1208"><tspan
       sodipodi:role="line"
       id="tspan1206"
       x="343.92096"
       y="331.41498">App 1</tspan></text>
  <text
     id="text1212"
     y="283.98346"
     x="761.68365"
     style="font-style:normal;font-variant:normal;font-weight:normal;font-stretch:normal;font-size:26.66666603px;line-height:1.25;font-family:'Noto Sans';-inkscape-font-specification:'Noto Sans, Normal';font-variant-ligatures:normal;font-variant-caps:normal;font-variant-numeric:normal;font-feature-settings:normal;text-align:start;letter-spacing:0px;word-spacing:0px;writing-mode:lr-tb;text-anchor:start;fill:#000000;fill-opacity:1;stroke:none"
     xml:space="preserve"
     inkscape:transform-center-x="353.00032"
     inkscape:transform-center-y="-17.330765"><tspan
       sodipodi:role="line"
       id="tspan1214"
       x="761.68365"
       y="283.98346">App 2</tspan></text>
  <text
     xml:space="preserve"
     style="font-style:normal;font-variant:normal;font-weight:normal;font-stretch:normal;font-size:21.33333397px;line-height:1.25;font-family:'Noto Sans';-inkscape-font-specification:'Noto Sans, Normal';font-variant-ligatures:normal;font-variant-caps:normal;font-variant-numeric:normal;font-feature-settings:normal;text-align:start;letter-spacing:0px;word-spacing:0px;writing-mode:lr-tb;text-anchor:start;fill:#000000;fill-opacity:1;stroke:none"
     x="280.07077"
     y="407.12311"
     id="text1220"><tspan
       sodipodi:role="line"
       id="tspan1222"
       x="280.07077"
       y="407.12311">Memory bound</tspan></text>
  <text
     id="text1228"
     y="356.04303"
     x="664.08405"
     style="font-style:normal;font-variant:normal;font-weight:normal;font-stretch:normal;font-size:21.33333397px;line-height:1.25;font-family:'Noto Sans';-inkscape-font-specification:'Noto Sans, Normal';font-variant-ligatures:normal;font-variant-caps:normal;font-variant-numeric:normal;font-feature-settings:normal;text-align:start;letter-spacing:0px;word-spacing:0px;writing-mode:lr-tb;text-anchor:start;fill:#000000;fill-opacity:1;stroke:none"
     xml:space="preserve"><tspan
       sodipodi:role="line"
       id="tspan1230"
       x="664.08405"
       y="356.04303">Compute bound</tspan></text>
</svg>
